<?xml version="1.0" encoding="UTF-8" standalone="no"?>
<!-- Created with Inkscape (http://www.inkscape.org/) -->

<svg
   width="512"
   height="512"
   viewBox="0 0 135.46666 135.46667"
   version="1.1"
   id="svg756"
   inkscape:version="1.2.2 (b0a84865, 2022-12-01)"
   sodipodi:docname="hyperfluid-icon.svg"
   xmlns:inkscape="http://www.inkscape.org/namespaces/inkscape"
   xmlns:sodipodi="http://sodipodi.sourceforge.net/DTD/sodipodi-0.dtd"
   xmlns:xlink="http://www.w3.org/1999/xlink"
   xmlns="http://www.w3.org/2000/svg"
   xmlns:svg="http://www.w3.org/2000/svg">
  <sodipodi:namedview
     id="namedview758"
     pagecolor="#ffffff"
     bordercolor="#000000"
     borderopacity="0.25"
     inkscape:showpageshadow="2"
     inkscape:pageopacity="0.0"
     inkscape:pagecheckerboard="0"
     inkscape:deskcolor="#d1d1d1"
     inkscape:document-units="mm"
     showgrid="false"
     inkscape:zoom="0.2102413"
     inkscape:cx="382.89337"
     inkscape:cy="561.25984"
     inkscape:window-width="1280"
     inkscape:window-height="456"
     inkscape:window-x="0"
     inkscape:window-y="33"
     inkscape:window-maximized="0"
     inkscape:current-layer="layer1" />
  <defs
     id="defs753">
    <linearGradient
       inkscape:collect="always"
       xlink:href="#linearGradient1077"
       id="linearGradient1079"
       x1="19.132097"
       y1="254.9398"
       x2="54.721107"
       y2="254.9398"
       gradientUnits="userSpaceOnUse"
       gradientTransform="translate(6.6607896,-163.57792)" />
    <linearGradient
       inkscape:collect="always"
       id="linearGradient1077">
      <stop
         style="stop-color:#fdaf2f;stop-opacity:1;"
         offset="0"
         id="stop1073" />
      <stop
         style="stop-color:#fe4a42;stop-opacity:1;"
         offset="1"
         id="stop1075" />
    </linearGradient>
    <linearGradient
       inkscape:collect="always"
       xlink:href="#linearGradient13404"
       id="linearGradient13406"
       x1="38.889267"
       y1="15.678507"
       x2="82.863144"
       y2="85.093025"
       gradientUnits="userSpaceOnUse" />
    <linearGradient
       inkscape:collect="always"
       id="linearGradient13404">
      <stop
         style="stop-color:#fea136;stop-opacity:1;"
         offset="0"
         id="stop13400" />
      <stop
         style="stop-color:#fc7844;stop-opacity:1;"
         offset="0.25"
         id="stop35423" />
      <stop
         style="stop-color:#db2471;stop-opacity:1;"
         offset="0.5"
         id="stop26104" />
      <stop
         style="stop-color:#670da9;stop-opacity:1;"
         offset="0.75"
         id="stop28935" />
      <stop
         style="stop-color:#441692;stop-opacity:1;"
         offset="0.875"
         id="stop42057" />
      <stop
         style="stop-color:#1b1a79;stop-opacity:1;"
         offset="1"
         id="stop13402" />
    </linearGradient>
    <linearGradient
       inkscape:collect="always"
       xlink:href="#linearGradient9296"
       id="linearGradient9298"
       x1="-31.791016"
       y1="145.99677"
       x2="3.3713138"
       y2="145.99677"
       gradientUnits="userSpaceOnUse"
       gradientTransform="translate(111.46384,-109.89385)" />
    <linearGradient
       inkscape:collect="always"
       id="linearGradient9296">
      <stop
         style="stop-color:#8662a1;stop-opacity:1;"
         offset="0"
         id="stop9292" />
      <stop
         style="stop-color:#4bdee6;stop-opacity:1;"
         offset="1"
         id="stop9294" />
    </linearGradient>
  </defs>
  <g
     inkscape:label="Layer 1"
     inkscape:groupmode="layer"
     id="layer1">
    <g
       id="g42558"
       transform="translate(-2.4085947,3.8078138)">
      <path
         id="path187"
         style="fill:url(#linearGradient1079);fill-opacity:1;stroke-width:0.143004"
         d="m 33.803318,75.354267 c -3.626955,0 -6.370174,2.60225 -7.613488,7.22178 -0.349397,1.29819 -0.385979,1.67407 -0.396359,4.07572 -0.0075,1.72371 0.05736,2.99458 0.186552,3.6468 0.462597,2.33534 1.42885,4.6732 2.836003,6.86212 1.184779,1.843 4.615309,4.949203 6.987687,6.327263 3.211413,1.86541 5.968911,2.86091 10.21333,3.6866 2.334236,0.45408 6.196338,0.0838 8.222754,-0.78859 0.1573,-0.0677 0.543219,-0.23543 0.857829,-0.37258 1.462717,-0.63768 3.84326,-2.63938 4.618839,-3.884 1.273017,-2.0429 1.653698,-3.538853 1.664498,-6.539663 0.0076,-2.10914 -0.02329,-2.3937 -0.395325,-3.63905 -0.679748,-2.27537 -1.346461,-3.44969 -2.956408,-5.2064 -1.194068,-1.30293 -4.252147,-3.10925 -5.857524,-3.45974 -3.120194,-0.68122 -3.734168,-0.80982 -4.390946,-0.92139 -2.713635,-0.46098 -4.863256,-1.60533 -8.055839,-4.28759 -2.311909,-1.94236 -4.006946,-2.72128 -5.921603,-2.72128 z"
         sodipodi:nodetypes="sssssssssssssssss" />
      <path
         id="path13304"
         style="opacity:1;fill:#1b1a79;fill-opacity:1;stroke-width:0.143004"
         d="m 54.968328,12.310906 c -5.18646,0.0111 -10.85206,1.60443 -15.44454,4.34341 -2.07741,1.23898 -3.45621,2.30064 -5.44153,4.18992 -3.42855,3.26271 -6.43676,8.18434 -7.67343,12.55427 -0.77028,2.72189 -0.97125,4.33271 -0.96325,7.72201 0.006,2.3643 0.0613,3.12836 0.32143,4.40645 0.78079,3.83625 1.88472,6.71916 3.74706,9.78597 2.4814,4.08629 6.52493,7.97102 12.85192,12.34757 0.50158,0.34696 1.14548,0.79194 1.43041,0.98857 0.28493,0.19663 0.97349,0.64703 1.53014,1.00097 2.74668,1.74645 6.32592,4.1383 7.91114,5.2865 1.60488,1.16245 4.50171,3.60352 5.67407,4.7811 0.67664,0.67966 1.96041,2.15912 3.01429,3.47472 0.88278,1.10201 2.6074,4.48683 3.11868,6.12056 1.16017,3.70718 1.3415,4.80179 1.50998,9.11262 0.14576,3.729804 0.39199,5.328074 1.1405,7.407304 0.98124,2.72571 3.17523,5.43255 5.43429,6.7045 2.60411,1.46623 5.337,2.37031 8.22276,2.72025 0.70788,0.0858 1.48021,0.18321 1.71617,0.21601 0.7519,0.10458 5.9706,-0.0518 6.93601,-0.20774 1.46932,-0.23741 4.01119,-0.82429 4.90926,-1.13326 2.44015,-0.83953 6.943172,-3.1993 8.052222,-4.2199 0.0895,-0.0824 0.50631,-0.40731 0.92604,-0.72192 0.90852,-0.68099 3.69299,-3.42365 4.50102,-4.43332 0.6447,-0.80559 1.91771,-2.61991 1.91771,-2.73317 0,-0.0408 0.15769,-0.28122 0.35036,-0.53382 0.57363,-0.75206 2.03819,-3.914124 2.65669,-5.736084 1.03762,-3.05654 1.66473,-7.19688 1.49241,-9.85625 -0.58599,-9.04365 -4.37739,-16.20247 -11.29181,-21.32118 -2.79281,-2.0675 -3.01758,-2.22503 -6.077662,-4.2571 -1.61238,-1.07071 -3.15706,-2.1028 -3.43235,-2.29392 -0.27528,-0.19113 -1.36906,-0.94739 -2.43086,-1.68052 -1.83297,-1.26558 -5.05579,-3.69969 -5.36298,-4.05039 -0.0787,-0.0898 -0.65147,-0.6137 -1.2733,-1.16427 -0.62183,-0.55057 -1.49066,-1.38514 -1.93063,-1.85467 -0.43998,-0.46953 -1.04887,-1.1129 -1.35289,-1.42989 -0.30403,-0.317 -0.78642,-0.86317 -1.07229,-1.21388 -0.28586,-0.35072 -0.61894,-0.73974 -0.74001,-0.86403 -0.42222,-0.43345 -1.89663,-2.32784 -2.55178,-3.27887 -0.36305,-0.52699 -0.72445,-0.96451 -0.80305,-0.97151 -0.13975,-0.0128 -0.77302,-1.82876 -1.33532,-3.82923 -0.55052,-1.95857 -0.87516,-4.35056 -1.09657,-8.07961 -0.11309,-1.90485 -0.31693,-3.73075 -0.51883,-4.64778 -0.79488,-3.6103 -2.52464,-6.55033 -5.06533,-8.60877 -1.31901,-1.06865 -2.14108,-1.54434 -4.28242,-2.47892 -0.42678,-0.18627 -2.1919,-0.70222 -2.70113,-0.78962 -0.24479,-0.042 -0.68987,-0.14126 -0.98909,-0.22066 -0.9558,-0.25359 -3.9825,-0.55542 -5.53351,-0.55242 z"
         sodipodi:nodetypes="cssscsssssssssssssscssssssssssssssssssscsssssssc" />
      <path
         id="path13362"
         style="opacity:1;fill:url(#linearGradient13406);fill-opacity:1;stroke-width:0.143004"
         d="m 54.968328,12.310906 c -5.18646,0.0111 -10.85206,1.60443 -15.44454,4.34341 -2.07741,1.23898 -3.45621,2.30064 -5.44153,4.18992 -3.42855,3.26271 -6.43676,8.18434 -7.67343,12.55427 -0.77028,2.72189 -0.97125,4.33271 -0.96325,7.72201 0.006,2.3643 0.0613,3.12836 0.32143,4.40645 0.78079,3.83625 1.88472,6.71916 3.74706,9.78597 2.4814,4.08629 6.52493,7.97102 12.85192,12.34757 0.50158,0.34696 1.14548,0.79194 1.43041,0.98857 0.28493,0.19663 0.97349,0.64703 1.53014,1.00097 2.74668,1.74645 6.32592,4.1383 7.91114,5.2865 1.60488,1.16245 4.50171,3.60352 5.67407,4.7811 0.67664,0.67966 1.96041,2.15912 3.01429,3.47472 0.88278,1.10201 2.6074,4.48683 3.11868,6.12056 1.16017,3.70718 1.3415,4.80179 1.50998,9.11262 0.14576,3.729804 0.39199,5.328074 1.1405,7.407304 3.087032,7.10431 8.968819,8.74425 15.37322,9.64076 13.177002,0.85078 11.65169,-6.598 22.292712,-14.2319 -35.982193,-10.308597 -4.27137,-11.575264 -26.617467,-54.518612 -1.928818,-3.652131 -2.229205,-4.237652 -3.588455,-9.034412 -0.55052,-1.95857 -0.87516,-4.35056 -1.09657,-8.07961 -0.11309,-1.90485 -0.31693,-3.73075 -0.51883,-4.64778 -0.79488,-3.6103 -2.52464,-6.55033 -5.06533,-8.60877 -1.31901,-1.06865 -2.14108,-1.54434 -4.28242,-2.47892 -0.42678,-0.18627 -2.1919,-0.70222 -2.70113,-0.78962 -0.24479,-0.042 -0.68987,-0.14126 -0.98909,-0.22066 -0.9558,-0.25359 -3.9825,-0.55542 -5.53351,-0.55242 z"
         sodipodi:nodetypes="cssscsssssssssscccccssssssc" />
      <path
         id="path187-7"
         style="fill:url(#linearGradient9298);fill-opacity:1;stroke-width:0.143004"
         d="m 93.566705,20.585923 c -4.7461,6e-4 -8.56437,1.43802 -11.14093,4.19458 -0.60722,0.64964 -1.86672,2.59862 -1.87172,2.89698 -0.0014,0.0787 -0.09658,0.32414 -0.21187,0.54518 -0.38041,0.72933 -0.67721,2.55138 -0.66921,4.11345 0.02066,4.12993 1.95116,8.09016 5.05861,10.37818 1.6018,1.1794 4.51504,2.0874 8.19174,2.55333 3.3323,0.42229 4.66894,0.97501 6.87762,2.84427 2.542735,2.15197 3.829875,2.90902 5.589845,3.28662 0.53615,0.11503 1.43817,0.21466 2.00453,0.22066 4.20122,0.0476 6.22292,-2.25465 7.27346,-8.2827 0.41339,-2.37204 0.0318,-6.39564 -0.87178,-9.19169 -1.18909,-3.67969 -3.56843,-7.02276 -6.61097,-9.28832 -0.96539,-0.71886 -3.0105,-1.89917 -3.82354,-2.20658 -4.388195,-1.65918 -6.312755,-2.06439 -9.795785,-2.06396 z"
         sodipodi:nodetypes="sscscsssscscsss" />
    </g>
  </g>
</svg>
